<?xml version="1.0" encoding="utf-8"?>
<!-- Generator: Adobe Illustrator 16.0.0, SVG Export Plug-In . SVG Version: 6.00 Build 0)  -->
<!DOCTYPE svg PUBLIC "-//W3C//DTD SVG 1.1//EN" "http://www.w3.org/Graphics/SVG/1.1/DTD/svg11.dtd">
<svg version="1.1" id="Layer_1" xmlns="http://www.w3.org/2000/svg" xmlns:xlink="http://www.w3.org/1999/xlink" x="0px" y="0px"
	 width="16px" height="16px" viewBox="0 0 16 16" enable-background="new 0 0 16 16" xml:space="preserve">
<g>
	<path d="M13.064,13.8H2.936c-0.736,0-1.335-0.599-1.335-1.335V3.403c0-0.737,0.599-1.336,1.336-1.336h10.128
		c0.736,0,1.336,0.599,1.336,1.336v9.062C14.4,13.201,13.801,13.8,13.064,13.8z M2.936,3.133c-0.148,0-0.27,0.121-0.27,0.27v9.062
		c0,0.148,0.121,0.269,0.269,0.269h10.129c0.148,0,0.27-0.12,0.27-0.269V3.403c0-0.148-0.121-0.27-0.27-0.27H2.936z M13.867,5.267
		H2.133C1.839,5.267,1.6,5.028,1.6,4.733S1.839,4.2,2.133,4.2h11.734c0.295,0,0.533,0.239,0.533,0.533S14.162,5.267,13.867,5.267z
		 M4.267,3.667c-0.294,0-0.533-0.239-0.533-0.533v-1.6C3.733,1.239,3.972,1,4.267,1S4.8,1.239,4.8,1.533v1.6
		C4.8,3.428,4.561,3.667,4.267,3.667z M11.733,3.667c-0.295,0-0.533-0.239-0.533-0.533v-1.6C11.2,1.239,11.438,1,11.733,1
		s0.533,0.239,0.533,0.533v1.6C12.267,3.428,12.028,3.667,11.733,3.667z"/>
	<circle cx="4.8" cy="11.133" r="0.533"/>
	<circle cx="4.8" cy="9" r="0.533"/>
	<circle cx="6.4" cy="11.133" r="0.533"/>
	<circle cx="6.4" cy="9" r="0.533"/>
	<circle cx="6.4" cy="6.867" r="0.533"/>
	<circle cx="9.6" cy="11.133" r="0.533"/>
	<circle cx="9.6" cy="9" r="0.533"/>
	<circle cx="9.6" cy="6.867" r="0.533"/>
	<circle cx="11.2" cy="9" r="0.533"/>
	<circle cx="11.2" cy="6.867" r="0.533"/>
	<circle cx="8" cy="11.133" r="0.533"/>
	<circle cx="8" cy="9" r="0.533"/>
	<circle cx="8" cy="6.867" r="0.533"/>
</g>
</svg>
