<?xml version="1.0" encoding="utf-8"?>
<!-- Generator: Adobe Illustrator 16.0.0, SVG Export Plug-In . SVG Version: 6.00 Build 0)  -->
<!DOCTYPE svg PUBLIC "-//W3C//DTD SVG 1.1//EN" "http://www.w3.org/Graphics/SVG/1.1/DTD/svg11.dtd">
<svg version="1.1" id="Layer_1" xmlns="http://www.w3.org/2000/svg" xmlns:xlink="http://www.w3.org/1999/xlink" x="0px" y="0px"
	 width="16px" height="16px" viewBox="0 0 16 16" enable-background="new 0 0 16 16" xml:space="preserve">
<title>communication</title>
<g>
	<path d="M12.723,6.571H11.2V3.829c0-0.757-0.614-1.372-1.372-1.372H3.429c-0.757,0-1.372,0.614-1.372,1.372V8.4
		c0,0.757,0.614,1.372,1.372,1.372h0.457v1.371c0,0.253,0.205,0.457,0.457,0.457c0.099,0,0.195-0.031,0.274-0.091l1.554-1.166V11.6
		c0.001,0.674,0.547,1.221,1.221,1.221h2.385l1.912,1.432c0.202,0.15,0.488,0.109,0.641-0.092c0.059-0.079,0.091-0.176,0.091-0.274
		V12.82h0.302c0.674-0.001,1.219-0.547,1.221-1.221V7.792C13.941,7.118,13.396,6.572,12.723,6.571z M4.343,8.857H3.429
		c-0.252,0-0.457-0.205-0.457-0.458V3.829c0-0.252,0.205-0.457,0.457-0.457h6.399c0.253,0,0.457,0.205,0.457,0.457V8.4
		c0,0.252-0.204,0.458-0.457,0.458H6.779c-0.099,0-0.195,0.031-0.274,0.092L4.8,10.229V9.314C4.8,9.063,4.595,8.857,4.343,8.857z
		 M13.028,11.6c0,0.17-0.137,0.307-0.306,0.307l0,0h-0.76c-0.252,0-0.457,0.205-0.457,0.457v0.608l-1.303-0.976
		c-0.079-0.06-0.176-0.092-0.274-0.092H7.392c-0.168,0-0.305-0.136-0.306-0.305V9.791l2.742-0.02c0.758,0,1.372-0.614,1.372-1.372
		V7.486h1.522c0.169,0,0.306,0.137,0.306,0.306l0,0V11.6z"/>
	<rect x="4.343" y="4.743" width="4.571" height="0.915"/>
	<rect x="4.343" y="6.571" width="2.286" height="0.915"/>
</g>
</svg>
