<?xml version="1.0" encoding="utf-8"?>
<!-- Generator: Adobe Illustrator 16.0.0, SVG Export Plug-In . SVG Version: 6.00 Build 0)  -->
<!DOCTYPE svg PUBLIC "-//W3C//DTD SVG 1.1//EN" "http://www.w3.org/Graphics/SVG/1.1/DTD/svg11.dtd">
<svg version="1.1"
	 id="Layer_1" xmlns:dc="http://purl.org/dc/elements/1.1/" xmlns:cc="http://creativecommons.org/ns#" xmlns:rdf="http://www.w3.org/1999/02/22-rdf-syntax-ns#" xmlns:svg="http://www.w3.org/2000/svg" xmlns:sodipodi="http://sodipodi.sourceforge.net/DTD/sodipodi-0.dtd" xmlns:inkscape="http://www.inkscape.org/namespaces/inkscape"
	 xmlns="http://www.w3.org/2000/svg" xmlns:xlink="http://www.w3.org/1999/xlink" x="0px" y="0px" width="16px" height="16px"
	 viewBox="0 0 16 16" enable-background="new 0 0 16 16" xml:space="preserve">
<g transform="translate(0,-952.36218)">
	<path d="M6.977,956.154c-0.142,0-0.256,0.115-0.256,0.256v1.792c0,0.142,0.114,0.256,0.256,0.256c0.141,0,0.256-0.115,0.256-0.256
		v-1.792C7.233,956.269,7.118,956.154,6.977,956.154z M4.517,957.046c-0.141,0.014-0.244,0.139-0.23,0.28
		c0.006,0.061,0.034,0.118,0.078,0.16l1.024,1.024c0.098,0.102,0.26,0.104,0.362,0.005c0.102-0.098,0.104-0.26,0.005-0.362
		c-0.002-0.002-0.005-0.005-0.007-0.007l-1.024-1.024C4.671,957.067,4.594,957.039,4.517,957.046z M9.281,957.17
		c-0.011,0-0.021,0.002-0.032,0.004c-0.057,0.008-0.108,0.035-0.147,0.076l-1.024,1.024c-0.103,0.097-0.107,0.259-0.009,0.362
		c0.097,0.103,0.259,0.107,0.362,0.009c0.002-0.002,0.005-0.005,0.007-0.007l1.024-1.024c0.104-0.096,0.11-0.258,0.014-0.362
		C9.426,957.198,9.354,957.168,9.281,957.17z M6.369,958.882c-0.142,0.006-0.251,0.125-0.245,0.267
		c0.001,0.028,0.007,0.055,0.017,0.082l2.264,5.884c0.051,0.132,0.2,0.197,0.331,0.146c0.057-0.022,0.104-0.063,0.133-0.117
		l0.724-1.345l1.492,1.496c0.1,0.102,0.262,0.102,0.362,0.002c0,0,0.001-0.001,0.002-0.002l1.084-1.088
		c0.099-0.1,0.099-0.26,0-0.359l-1.488-1.492l1.34-0.729c0.125-0.067,0.17-0.223,0.102-0.348c-0.029-0.053-0.076-0.094-0.133-0.116
		l-5.88-2.264C6.44,958.886,6.404,958.88,6.369,958.882z M3.649,959.482c-0.141,0-0.256,0.115-0.256,0.256
		c0,0.142,0.115,0.256,0.256,0.256h1.792c0.142,0,0.256-0.114,0.256-0.256c0-0.141-0.115-0.256-0.256-0.256H3.649z M6.825,959.582
		l4.827,1.86l-1.155,0.624c-0.125,0.066-0.173,0.222-0.106,0.347c0.013,0.022,0.028,0.043,0.047,0.062l1.556,1.552l-0.724,0.725
		l-1.557-1.553c-0.1-0.1-0.262-0.1-0.361,0c-0.018,0.018-0.031,0.035-0.043,0.057l-0.627,1.155L6.825,959.582z M5.697,960.754
		c-0.011,0-0.021,0.002-0.032,0.004c-0.057,0.008-0.108,0.035-0.148,0.076l-1.024,1.024c-0.103,0.098-0.107,0.26-0.009,0.361
		c0.097,0.104,0.259,0.107,0.362,0.01c0.002-0.002,0.005-0.005,0.007-0.008l1.024-1.023c0.104-0.096,0.11-0.258,0.014-0.362
		C5.841,960.782,5.771,960.752,5.697,960.754L5.697,960.754z"/>
</g>
</svg>
