<?xml version="1.0" encoding="utf-8"?>
<!-- Generator: Adobe Illustrator 16.0.0, SVG Export Plug-In . SVG Version: 6.00 Build 0)  -->
<!DOCTYPE svg PUBLIC "-//W3C//DTD SVG 1.1//EN" "http://www.w3.org/Graphics/SVG/1.1/DTD/svg11.dtd">
<svg version="1.1" id="Layer_1" xmlns="http://www.w3.org/2000/svg" xmlns:xlink="http://www.w3.org/1999/xlink" x="0px" y="0px"
	 width="16px" height="16px" viewBox="0 0 16 16" enable-background="new 0 0 16 16" xml:space="preserve">
<path d="M8.537,8.451l1.639-1.625c0.154-0.154,0.154-0.397,0-0.538c-0.153-0.154-0.396-0.154-0.537,0L8,7.914L6.349,6.275
	c-0.153-0.154-0.396-0.154-0.538,0c-0.153,0.153-0.153,0.396,0,0.538L7.45,8.438l-1.639,1.638c-0.153,0.154-0.153,0.397,0,0.538
	c0.077,0.077,0.179,0.115,0.269,0.115c0.103,0,0.192-0.038,0.269-0.115L8,8.988l1.639,1.626c0.076,0.077,0.179,0.115,0.269,0.115
	c0.103,0,0.192-0.038,0.269-0.115c0.154-0.153,0.154-0.396,0-0.538L8.537,8.451z"/>
</svg>
