<svg xmlns="http://www.w3.org/2000/svg" xmlns:xlink="http://www.w3.org/1999/xlink" version="1.0" x="0px" y="0px" viewBox="0 0 32 40" enable-background="new 0 0 32 32" xml:space="preserve"><g><path d="M16.565,9.265l6.799,6.745l-6.799,6.743c-0.746,0.746-0.746,1.953,0,2.699c0.754,0.745,1.972,0.745,2.726,0l8.154-8.094   c0.746-0.746,0.746-1.954,0-2.698l-8.154-8.095c-0.754-0.746-1.972-0.744-2.726,0C15.819,7.312,15.819,8.519,16.565,9.265z"/><path d="M15.448,17.358c0.746-0.746,0.746-1.954,0-2.698L7.293,6.565c-0.754-0.746-1.973-0.744-2.727,0   c-0.746,0.746-0.746,1.953,0,2.699l6.8,6.745l-6.8,6.743c-0.746,0.746-0.746,1.953,0,2.699c0.754,0.745,1.973,0.745,2.727,0   L15.448,17.358z"/></g><text x="0" y="47" fill="#000000" font-size="5px" font-weight="bold" font-family="'Helvetica Neue', Helvetica, Arial-Unicode, Arial, Sans-serif">Created by Pixel Bazaar</text><text x="0" y="52" fill="#000000" font-size="5px" font-weight="bold" font-family="'Helvetica Neue', Helvetica, Arial-Unicode, Arial, Sans-serif">from the Noun Project</text></svg>