<?xml version="1.0" encoding="utf-8"?>
<!-- Generator: Adobe Illustrator 16.0.0, SVG Export Plug-In . SVG Version: 6.00 Build 0)  -->
<!DOCTYPE svg PUBLIC "-//W3C//DTD SVG 1.1//EN" "http://www.w3.org/Graphics/SVG/1.1/DTD/svg11.dtd">
<svg version="1.1" id="Layer_1" xmlns="http://www.w3.org/2000/svg" xmlns:xlink="http://www.w3.org/1999/xlink" x="0px" y="0px"
	 width="16px" height="16px" viewBox="0 0 16 16" enable-background="new 0 0 16 16" xml:space="preserve">
<path d="M9.242,13.865V9.642h4.224c0.077,0,0.153-0.025,0.218-0.09c0.051-0.051,0.09-0.141,0.09-0.218V7.466
	c0-0.077-0.026-0.154-0.09-0.218c-0.052-0.051-0.141-0.09-0.218-0.09H9.242V2.935c0-0.077-0.026-0.154-0.09-0.218
	c-0.052-0.051-0.141-0.09-0.218-0.09H7.065c-0.077,0-0.153,0.026-0.217,0.09c-0.051,0.051-0.09,0.141-0.09,0.218v4.224H2.534
	c-0.077,0-0.153,0.026-0.217,0.09c-0.051,0.051-0.09,0.141-0.09,0.218v1.868c0,0.077,0.026,0.154,0.09,0.218
	c0.051,0.052,0.141,0.09,0.217,0.09h4.224v4.224c0,0.077,0.026,0.154,0.09,0.218c0.051,0.052,0.141,0.09,0.217,0.09h1.869
	c0.077,0,0.153-0.026,0.218-0.09C9.203,14.032,9.242,13.942,9.242,13.865z"/>
</svg>
