<?xml version="1.0" encoding="utf-8"?>
<!-- Generator: Adobe Illustrator 16.0.0, SVG Export Plug-In . SVG Version: 6.00 Build 0)  -->
<!DOCTYPE svg PUBLIC "-//W3C//DTD SVG 1.1//EN" "http://www.w3.org/Graphics/SVG/1.1/DTD/svg11.dtd">
<svg version="1.1" id="Layer_1" xmlns="http://www.w3.org/2000/svg" xmlns:xlink="http://www.w3.org/1999/xlink" x="0px" y="0px"
	 width="16px" height="16px" viewBox="0 0 16 16" enable-background="new 0 0 16 16" xml:space="preserve">
<g>
	<g>
		<path d="M9.068,13.602c-0.735,0-1.456-0.303-1.981-0.872c-0.518-0.562-1.186-0.938-1.932-1.091l-0.26-0.054
			c-0.343-0.059-0.641-0.286-0.79-0.607c-0.168-0.361-0.128-0.771,0.107-1.094c0.235-0.323,0.613-0.489,1.01-0.439
			c0.005,0.001,0.009,0.001,0.014,0.002L6.385,9.67L6.374,9.645L4.03,4.604C3.819,4.149,3.921,3.607,4.279,3.285
			C4.53,3.06,4.865,2.97,5.198,3.038c0.293,0.06,0.533,0.233,0.64,0.463L7.241,6.52C7.354,6.302,7.54,6.135,7.772,6.044
			C8.197,5.878,8.676,6.029,8.95,6.389C8.96,6.37,8.97,6.351,8.98,6.332c0.164-0.291,0.455-0.478,0.799-0.515
			c0.432-0.047,0.854,0.163,1.098,0.532c0.1-0.197,0.262-0.364,0.477-0.464c0.266-0.124,0.561-0.137,0.834-0.038
			c0.273,0.1,0.492,0.3,0.615,0.565l1.043,2.246c0.63,1.354,0.044,2.97-1.307,3.601l-2.325,1.088
			C9.846,13.518,9.455,13.602,9.068,13.602z M5.087,9.836c-0.218,0-0.42,0.102-0.551,0.283c-0.148,0.204-0.174,0.462-0.068,0.689
			c0.094,0.202,0.281,0.346,0.501,0.383l0.267,0.055c0.829,0.17,1.571,0.588,2.146,1.212c0.682,0.74,1.752,0.952,2.664,0.525
			l2.325-1.088c1.151-0.538,1.65-1.915,1.114-3.069L12.439,6.58l0,0c-0.078-0.167-0.216-0.294-0.389-0.357
			c-0.173-0.063-0.359-0.054-0.525,0.023c-0.309,0.145-0.442,0.512-0.299,0.819v0l0.074,0.162c0.014,0.027,0.02,0.056,0.02,0.084
			c0,0.076-0.043,0.148-0.116,0.182c-0.101,0.046-0.22,0.003-0.266-0.097l-0.331-0.713c-0.146-0.314-0.461-0.502-0.786-0.468
			C9.607,6.238,9.429,6.352,9.328,6.529C9.23,6.702,9.222,6.913,9.306,7.093v0l0.456,0.982c0.014,0.027,0.02,0.057,0.02,0.084
			c0,0.076-0.043,0.148-0.115,0.182C9.564,8.389,9.446,8.346,9.4,8.245L8.708,6.756c-0.144-0.308-0.49-0.457-0.791-0.34
			C7.757,6.479,7.633,6.603,7.568,6.762c-0.064,0.16-0.06,0.334,0.013,0.49v0l0.694,1.494C8.289,8.773,8.294,8.803,8.294,8.83
			c0,0.076-0.042,0.148-0.116,0.182c-0.1,0.047-0.219,0.003-0.266-0.098L5.475,3.669c-0.052-0.112-0.192-0.207-0.357-0.24
			C4.91,3.387,4.702,3.443,4.547,3.583C4.318,3.788,4.255,4.139,4.393,4.436l2.52,5.42c0.032,0.068,0.022,0.148-0.024,0.208
			s-0.122,0.087-0.196,0.073L5.167,9.841C5.14,9.838,5.113,9.836,5.087,9.836z"/>
		<g>
			<path d="M4.236,2.722c-0.076,0-0.148-0.043-0.182-0.116L3.568,1.56c-0.046-0.1-0.003-0.219,0.097-0.266
				c0.1-0.046,0.219-0.003,0.266,0.097l0.486,1.046c0.046,0.1,0.003,0.219-0.097,0.266C4.292,2.716,4.264,2.722,4.236,2.722z"/>
			<path d="M5.648,2.646c-0.033,0-0.066-0.008-0.097-0.025C5.455,2.568,5.419,2.447,5.473,2.35L6.05,1.303
				c0.053-0.097,0.175-0.132,0.271-0.078C6.419,1.278,6.454,1.4,6.4,1.497L5.823,2.543C5.787,2.609,5.718,2.646,5.648,2.646z"/>
			<path d="M3.271,3.759c-0.013,0-0.025-0.001-0.039-0.004l-1.17-0.229C1.953,3.505,1.882,3.399,1.904,3.291
				c0.021-0.108,0.125-0.179,0.234-0.158l1.17,0.229c0.108,0.021,0.179,0.126,0.158,0.235C3.448,3.692,3.364,3.759,3.271,3.759z"/>
		</g>
	</g>
</g>
</svg>
