<?xml version="1.0" encoding="utf-8"?>
<!-- Generator: Adobe Illustrator 16.0.0, SVG Export Plug-In . SVG Version: 6.00 Build 0)  -->
<!DOCTYPE svg PUBLIC "-//W3C//DTD SVG 1.1//EN" "http://www.w3.org/Graphics/SVG/1.1/DTD/svg11.dtd">
<svg version="1.1" id="Layer_1" xmlns="http://www.w3.org/2000/svg" xmlns:xlink="http://www.w3.org/1999/xlink" x="0px" y="0px"
	 width="16px" height="16px" viewBox="0 0 16 16" enable-background="new 0 0 16 16" xml:space="preserve">
<title>08</title>
<path d="M4.651,13.498h2.222c0.283,0,0.512-0.229,0.512-0.512v-2.119c-0.016-0.365,0.266-0.674,0.631-0.689
	c0.364-0.016,0.673,0.266,0.688,0.631c0.001,0.02,0.001,0.039,0,0.059v2.119c0,0.283,0.229,0.512,0.512,0.512h2.224
	c0.565,0,1.024-0.458,1.024-1.023v-4.48l0.461,0.368c0.221,0.176,0.543,0.14,0.72-0.08c0.177-0.221,0.141-0.543-0.08-0.72l0,0
	L8.365,3.408c-0.187-0.15-0.453-0.15-0.64,0L2.438,7.557C2.214,7.729,2.172,8.05,2.344,8.274s0.494,0.267,0.718,0.094
	c0.002-0.002,0.005-0.004,0.007-0.006l0.557-0.437v4.548C3.626,13.04,4.085,13.498,4.651,13.498
	C4.651,13.498,4.651,13.498,4.651,13.498z M8.043,4.465l3.397,2.709v5.3H9.73v-1.607c0.025-0.931-0.707-1.705-1.637-1.73
	s-1.705,0.707-1.73,1.637c-0.001,0.031-0.001,0.063,0,0.094v1.607H4.651V7.12L8.043,4.465z"/>
</svg>
