<?xml version="1.0" encoding="utf-8"?>
<!-- Generator: Adobe Illustrator 16.0.0, SVG Export Plug-In . SVG Version: 6.00 Build 0)  -->
<!DOCTYPE svg PUBLIC "-//W3C//DTD SVG 1.1//EN" "http://www.w3.org/Graphics/SVG/1.1/DTD/svg11.dtd">
<svg version="1.1" id="Layer_1" xmlns="http://www.w3.org/2000/svg" xmlns:xlink="http://www.w3.org/1999/xlink" x="0px" y="0px"
	 width="16px" height="16px" viewBox="0 0 16 16" enable-background="new 0 0 16 16" xml:space="preserve">
<path d="M4.542,12.8c-0.584,0-1.173-0.237-1.622-0.699l0,0c-0.449-0.462-0.68-1.068-0.68-1.669l0,0c0-0.565,0.207-1.136,0.624-1.564
	l0,0L2.96,8.769l5.757-5.924C9.266,2.279,9.992,2,10.718,2l0,0c0.771,0,1.55,0.313,2.145,0.924l0,0
	c0.594,0.612,0.897,1.413,0.897,2.206l0,0c0.001,0.747-0.271,1.495-0.82,2.059l0,0l-4.833,4.974l-0.359,0.37l0,0
	c-0.4-0.412-0.4-1.068,0-1.48l4.473-4.604c0.348-0.359,0.521-0.829,0.521-1.319l0,0c0-0.52-0.197-1.052-0.6-1.466l0,0
	c-0.402-0.414-0.92-0.617-1.425-0.618l0,0c-0.477,0.001-0.933,0.179-1.28,0.537l0,0L3.679,9.509L3.583,9.607
	c-0.217,0.225-0.325,0.515-0.325,0.824l0,0c0,0.328,0.125,0.666,0.381,0.93l0,0c0.256,0.263,0.583,0.391,0.903,0.392l0,0
	c0.301-0.001,0.583-0.112,0.802-0.335l0,0l4.073-4.192l0.341-0.351C9.84,6.79,9.881,6.682,9.881,6.559l0,0
	c0-0.13-0.049-0.267-0.154-0.375l0,0c-0.106-0.109-0.239-0.16-0.365-0.16l0,0C9.241,6.024,9.137,6.066,9.055,6.15l0,0L5.3,10.015
	l0,0c-0.401-0.413-0.401-1.069,0-1.481l3.035-3.123C8.617,5.12,8.992,4.976,9.361,4.977l0,0c0.392,0,0.785,0.159,1.084,0.466l0,0
	c0.299,0.307,0.453,0.712,0.453,1.116l0,0c0.001,0.379-0.139,0.766-0.421,1.056l0,0l-0.341,0.351l-4.075,4.193
	C5.646,12.586,5.093,12.8,4.545,12.8l0,0C4.544,12.8,4.542,12.8,4.542,12.8L4.542,12.8z"/>
</svg>
