<?xml version="1.0" encoding="utf-8"?>
<!-- Generator: Adobe Illustrator 16.0.0, SVG Export Plug-In . SVG Version: 6.00 Build 0)  -->
<!DOCTYPE svg PUBLIC "-//W3C//DTD SVG 1.1//EN" "http://www.w3.org/Graphics/SVG/1.1/DTD/svg11.dtd">
<svg version="1.1" id="Layer_1" xmlns="http://www.w3.org/2000/svg" xmlns:xlink="http://www.w3.org/1999/xlink" x="0px" y="0px"
	 width="16px" height="16px" viewBox="0 0 16 16" enable-background="new 0 0 16 16" xml:space="preserve">
<g>
	<path d="M7.993,2.453c1.647,0,2.962,1.33,2.962,2.962c0,1.647-1.315,2.962-2.962,2.962c-1.632,0-2.962-1.315-2.962-2.962
		C5.03,3.783,6.36,2.453,7.993,2.453z M7.993,8.725c2.615,0,4.73,2.509,4.73,5.576c0,0.016,0,0.031,0,0.031c-3.144,0-6.302,0-9.46,0
		c0,0,0-0.016,0-0.031C3.262,11.233,5.378,8.725,7.993,8.725z"/>
</g>
</svg>
