<?xml version="1.0" encoding="utf-8"?>
<!-- Generator: Adobe Illustrator 16.0.0, SVG Export Plug-In . SVG Version: 6.00 Build 0)  -->
<!DOCTYPE svg PUBLIC "-//W3C//DTD SVG 1.1//EN" "http://www.w3.org/Graphics/SVG/1.1/DTD/svg11.dtd">
<svg version="1.1" id="Layer_1" xmlns="http://www.w3.org/2000/svg" xmlns:xlink="http://www.w3.org/1999/xlink" x="0px" y="0px"
	 width="16px" height="16px" viewBox="0 0 16 16" enable-background="new 0 0 16 16" xml:space="preserve">
<title>on off</title>
<path d="M8,14.8c-3.529,0-6.4-2.755-6.4-6.142c0-2.297,1.319-4.384,3.442-5.448c0.447-0.225,0.999-0.058,1.232,0.371
	c0.233,0.429,0.06,0.958-0.387,1.182C4.369,5.525,3.426,7.017,3.426,8.658c0,2.42,2.052,4.389,4.574,4.389
	c2.521,0,4.574-1.969,4.574-4.389c0-1.65-0.951-3.145-2.479-3.902c-0.447-0.222-0.623-0.75-0.392-1.181
	c0.231-0.431,0.782-0.599,1.23-0.375C13.072,4.259,14.4,6.35,14.4,8.658C14.4,12.045,11.529,14.8,8,14.8z"/>
<path d="M8,10.258c-0.504,0-0.913-0.393-0.913-0.877V2.876C7.087,2.392,7.496,2,8,2c0.504,0,0.913,0.392,0.913,0.876v6.504
	C8.913,9.865,8.504,10.258,8,10.258z"/>
</svg>
