<?xml version="1.0" encoding="utf-8"?>
<!-- Generator: Adobe Illustrator 16.0.0, SVG Export Plug-In . SVG Version: 6.00 Build 0)  -->
<!DOCTYPE svg PUBLIC "-//W3C//DTD SVG 1.1//EN" "http://www.w3.org/Graphics/SVG/1.1/DTD/svg11.dtd">
<svg version="1.1" id="Layer_1" xmlns="http://www.w3.org/2000/svg" xmlns:xlink="http://www.w3.org/1999/xlink" x="0px" y="0px"
	 width="16px" height="16px" viewBox="0 0 16 16" enable-background="new 0 0 16 16" xml:space="preserve">
<title>03</title>
<path d="M10.987,8.656V7.811C10.983,6.786,10.399,5.852,9.479,5.4V4.767c0-0.387-0.271-0.657-0.657-0.657H7.177
	c-0.387,0-0.657,0.27-0.657,0.657V5.4C5.6,5.852,5.016,6.787,5.013,7.812v0.845c-0.53,0.155-0.875,0.628-0.875,1.222v1.75
	c0,0.336,0.277,0.361,0.362,0.361h0.525c0.071,0.404,0.421,0.699,0.832,0.701h4.315c0.41,0,0.74-0.299,0.805-0.701h0.524
	c0.085,0,0.362-0.024,0.362-0.361v-1.75C11.862,9.285,11.518,8.813,10.987,8.656z M5.013,11.615h-0.5V9.877
	c0-0.39,0.187-0.689,0.5-0.824V11.615z M6.896,4.767c0-0.179,0.103-0.282,0.282-0.282h1.645c0.18,0,0.282,0.103,0.282,0.282v0.485
	C8.859,5.177,8.605,5.14,8.35,5.14h-0.7c-0.255,0-0.51,0.038-0.754,0.112V4.767z M10.612,11.846c0,0.268-0.188,0.469-0.44,0.469
	H5.857c-0.259,0-0.469-0.21-0.469-0.469v-1.484C6.266,10.066,7.233,9.891,8,9.89s1.732,0.175,2.612,0.472V11.846z M10.612,9.967
	C9.729,9.682,8.769,9.515,8,9.515c-0.769,0-1.729,0.168-2.612,0.452V7.811c0-0.605,0.238-1.187,0.664-1.618
	C6.471,5.76,7.047,5.516,7.65,5.515h0.7C8.953,5.516,9.529,5.76,9.948,6.193c0.426,0.431,0.665,1.012,0.664,1.618V9.967z
	 M11.487,11.615h-0.5V9.053c0.313,0.135,0.5,0.435,0.5,0.826V11.615z M8,6.365c-0.473,0-0.888,0.415-0.888,0.888
	C7.112,7.725,7.527,8.14,8,8.14s0.888-0.415,0.888-0.887C8.888,6.779,8.473,6.365,8,6.365z M8,7.765
	c-0.264,0-0.513-0.25-0.513-0.512C7.487,6.99,7.737,6.74,8,6.74s0.513,0.25,0.513,0.513C8.513,7.515,8.264,7.765,8,7.765z"/>
</svg>
