<?xml version="1.0" encoding="utf-8"?>
<!-- Generator: Adobe Illustrator 16.0.0, SVG Export Plug-In . SVG Version: 6.00 Build 0)  -->
<!DOCTYPE svg PUBLIC "-//W3C//DTD SVG 1.1//EN" "http://www.w3.org/Graphics/SVG/1.1/DTD/svg11.dtd">
<svg version="1.1"
	 id="Layer_1" xmlns:dc="http://purl.org/dc/elements/1.1/" xmlns:cc="http://creativecommons.org/ns#" xmlns:rdf="http://www.w3.org/1999/02/22-rdf-syntax-ns#" xmlns:svg="http://www.w3.org/2000/svg" xmlns:sodipodi="http://sodipodi.sourceforge.net/DTD/sodipodi-0.dtd" xmlns:inkscape="http://www.inkscape.org/namespaces/inkscape"
	 xmlns="http://www.w3.org/2000/svg" xmlns:xlink="http://www.w3.org/1999/xlink" x="0px" y="0px" width="16px" height="16px"
	 viewBox="0 0 16 16" enable-background="new 0 0 16 16" xml:space="preserve">
<g>
	<path d="M1.707,5.128C1.556,5.29,1.565,5.543,1.728,5.693c0.021,0.02,0.045,0.038,0.071,0.053l4.218,2.442l4.538-3.342l-3.34,4.54
		l2.439,4.215c0.11,0.191,0.354,0.257,0.546,0.147c0.086-0.05,0.15-0.129,0.182-0.223l4-12.001c0.068-0.21-0.046-0.436-0.256-0.505
		c-0.081-0.027-0.168-0.027-0.25,0l-12.001,4C1.81,5.041,1.752,5.078,1.707,5.128z"/>
</g>
</svg>
