<?xml version="1.0" encoding="utf-8"?>
<!-- Generator: Adobe Illustrator 16.0.0, SVG Export Plug-In . SVG Version: 6.00 Build 0)  -->
<!DOCTYPE svg PUBLIC "-//W3C//DTD SVG 1.1//EN" "http://www.w3.org/Graphics/SVG/1.1/DTD/svg11.dtd">
<svg version="1.1" id="Layer_1" xmlns="http://www.w3.org/2000/svg" xmlns:xlink="http://www.w3.org/1999/xlink" x="0px" y="0px"
	 width="16px" height="16px" viewBox="0 0 16 16" enable-background="new 0 0 16 16" xml:space="preserve">
<title>task</title>
<desc>Created with Sketch.</desc>
<g>
	<g transform="translate(-660.000000, -211.000000)">
		<path d="M672.48,213c1.061,0,1.92,0.859,1.92,1.92l0,0v8.96c0,1.061-0.859,1.92-1.92,1.92l0,0h-8.96
			c-1.061,0-1.92-0.859-1.92-1.92l0,0v-8.96c0-1.061,0.859-1.92,1.92-1.92l0,0H672.48z M672.48,214.28h-8.96
			c-0.354,0-0.64,0.286-0.64,0.64l0,0v8.96c0,0.354,0.287,0.64,0.64,0.64l0,0h8.96c0.354,0,0.64-0.286,0.64-0.64l0,0v-8.96
			C673.12,214.566,672.834,214.28,672.48,214.28L672.48,214.28z M671.638,219.615l0.056,0.05c0.232,0.232,0.249,0.599,0.05,0.85
			l-0.05,0.056l-2.715,2.715c-0.232,0.232-0.599,0.249-0.85,0.051l-0.056-0.051l-1.358-1.357c-0.25-0.25-0.25-0.655,0-0.904
			c0.232-0.232,0.598-0.25,0.85-0.051l0.056,0.051l0.905,0.903l2.264-2.262C671.021,219.433,671.387,219.417,671.638,219.615z
			 M668,218.12c0.354,0,0.641,0.287,0.641,0.64c0,0.329-0.248,0.599-0.566,0.636L668,219.4h-3.2c-0.354,0-0.64-0.287-0.64-0.64
			c0-0.328,0.247-0.599,0.565-0.635l0.074-0.004H668z M671.2,215.56c0.354,0,0.64,0.287,0.64,0.64c0,0.328-0.247,0.599-0.565,0.636
			l-0.074,0.004h-6.4c-0.354,0-0.64-0.286-0.64-0.64c0-0.328,0.247-0.599,0.565-0.636l0.074-0.004H671.2z"/>
	</g>
</g>
</svg>
